<svg id="svg" version="1.1" xmlns="http://www.w3.org/2000/svg" xmlns:xlink="http://www.w3.org/1999/xlink" width="400" height="400" viewBox="0, 0, 400,400"><g id="svgg"><path id="path0" d="M195.918 96.705 C 193.782 101.487,190.043 109.900,187.609 115.400 C 185.175 120.900,182.929 125.940,182.618 126.600 C 181.907 128.107,180.946 130.254,176.622 140.000 C 169.532 155.979,168.316 157.988,163.392 161.848 C 159.336 165.027,153.471 166.631,141.800 167.753 C 130.919 168.799,115.861 170.366,114.600 170.583 C 113.940 170.697,109.710 171.146,105.200 171.582 C 100.690 172.017,94.660 172.636,91.800 172.957 C 88.940 173.279,85.385 173.659,83.900 173.803 C 82.415 173.946,81.213 174.184,81.228 174.332 C 81.254 174.578,85.946 178.854,97.759 189.400 C 136.196 223.715,137.744 225.267,140.120 231.853 C 142.039 237.173,141.949 240.650,139.613 251.600 C 138.933 254.790,138.030 259.110,137.607 261.200 C 137.185 263.290,136.282 267.520,135.600 270.600 C 134.918 273.680,134.014 277.910,133.591 280.000 C 133.168 282.090,132.357 285.960,131.790 288.600 C 128.554 303.667,126.482 313.786,126.606 313.925 C 126.667 313.994,128.581 312.981,130.858 311.675 C 137.957 307.604,145.200 303.425,150.400 300.400 C 175.840 285.600,188.037 278.722,191.169 277.409 C 199.797 273.792,209.005 276.058,223.600 285.391 C 224.370 285.883,231.660 290.117,239.800 294.800 C 247.940 299.482,256.940 304.660,259.800 306.307 C 271.563 313.077,273.288 314.045,273.394 313.925 C 273.500 313.805,272.237 307.504,270.401 299.000 C 269.083 292.898,267.257 284.230,266.396 280.000 C 265.971 277.910,265.069 273.680,264.392 270.600 C 263.715 267.520,262.818 263.290,262.399 261.200 C 261.981 259.110,260.975 254.430,260.164 250.800 C 256.760 235.563,258.627 228.997,269.116 219.315 C 277.196 211.857,280.604 208.346,277.200 210.987 C 276.870 211.243,274.170 212.224,271.200 213.168 C 268.230 214.111,265.487 215.044,265.105 215.241 C 264.723 215.439,264.163 215.600,263.859 215.600 C 263.556 215.600,262.850 215.960,262.291 216.400 C 261.679 216.881,260.662 217.202,259.737 217.205 C 258.832 217.208,257.231 217.701,255.844 218.405 C 254.548 219.062,252.999 219.600,252.403 219.600 C 251.807 219.600,250.506 220.032,249.512 220.561 C 247.498 221.632,239.001 224.456,235.600 225.186 C 229.732 226.445,194.349 227.048,184.200 226.063 C 175.364 225.205,163.709 222.261,159.971 219.942 C 158.965 219.319,157.525 218.600,156.771 218.346 C 156.017 218.092,155.220 217.745,154.999 217.575 C 154.778 217.405,153.663 216.898,152.521 216.448 C 151.379 215.998,148.419 214.273,145.943 212.615 C 143.467 210.957,141.225 209.600,140.961 209.600 C 140.530 209.600,138.984 208.200,137.139 206.138 C 136.479 205.401,135.605 204.641,132.382 202.000 C 130.326 200.316,129.002 198.983,127.400 196.984 C 125.936 195.159,123.384 192.584,121.557 191.090 C 119.477 189.390,118.324 187.476,118.472 185.974 C 118.717 183.497,121.812 182.392,123.289 184.254 C 123.903 185.028,125.536 186.680,128.443 189.468 C 129.629 190.606,131.337 192.436,132.238 193.535 C 133.138 194.635,134.758 196.280,135.838 197.192 C 136.917 198.104,138.413 199.378,139.163 200.025 C 139.912 200.671,140.653 201.200,140.810 201.200 C 140.966 201.200,141.570 201.920,142.153 202.800 C 142.735 203.680,143.462 204.400,143.769 204.400 C 144.076 204.400,146.459 205.839,149.064 207.597 C 151.669 209.355,154.046 210.795,154.346 210.797 C 154.646 210.799,155.726 211.224,156.746 211.742 C 157.766 212.260,159.320 212.993,160.200 213.371 C 161.080 213.749,162.430 214.483,163.200 215.002 C 163.970 215.521,165.860 216.249,167.400 216.620 C 168.940 216.991,171.370 217.623,172.800 218.024 C 174.230 218.426,176.300 218.868,177.400 219.007 C 178.500 219.145,180.210 219.535,181.200 219.873 C 185.477 221.332,231.072 220.914,234.023 219.388 C 234.648 219.065,235.670 218.800,236.294 218.800 C 237.664 218.800,245.538 216.172,246.391 215.429 C 246.726 215.138,247.990 214.678,249.200 214.408 C 250.410 214.137,251.670 213.753,252.000 213.555 C 252.330 213.357,252.870 213.097,253.200 212.978 C 253.530 212.858,254.466 212.409,255.279 211.980 C 256.093 211.551,257.353 211.198,258.079 211.195 C 258.806 211.192,260.460 210.652,261.756 209.995 C 263.052 209.338,264.509 208.800,264.994 208.800 C 265.479 208.800,266.939 208.433,268.238 207.985 C 269.537 207.537,271.320 206.925,272.200 206.624 C 279.612 204.089,283.225 200.914,285.374 195.047 C 286.199 192.796,286.711 192.009,287.823 191.287 C 288.596 190.784,289.413 189.974,289.637 189.487 C 289.861 188.999,290.971 188.150,292.105 187.600 C 293.525 186.911,294.236 186.300,294.392 185.636 C 294.718 184.249,296.492 183.036,297.737 183.348 C 300.752 184.105,300.827 187.895,297.882 190.600 C 293.201 194.900,292.380 195.600,292.023 195.600 C 291.592 195.600,290.000 198.975,290.000 199.890 C 290.000 200.213,291.943 198.705,294.317 196.539 C 296.691 194.373,300.147 191.250,301.996 189.600 C 308.967 183.381,318.357 174.793,318.578 174.436 C 318.705 174.230,317.603 173.948,316.104 173.803 C 314.617 173.659,311.060 173.279,308.200 172.957 C 305.340 172.636,299.310 172.017,294.800 171.582 C 290.290 171.146,286.060 170.697,285.400 170.583 C 284.139 170.366,269.081 168.799,258.200 167.753 C 239.282 165.935,234.067 162.879,227.935 150.015 C 225.137 144.145,225.204 144.292,221.387 135.600 C 219.502 131.310,217.703 127.260,217.389 126.600 C 217.075 125.940,214.861 120.990,212.471 115.600 C 202.541 93.210,200.190 88.009,200.000 88.009 C 199.890 88.010,198.053 91.923,195.918 96.705 M178.483 166.312 C 192.246 173.090,187.588 193.400,172.270 193.400 C 156.495 193.400,152.276 171.936,166.857 165.859 C 170.569 164.312,174.753 164.475,178.483 166.312 M243.662 167.346 C 257.256 174.234,252.222 194.794,237.000 194.556 C 223.028 194.338,217.581 176.257,229.099 168.332 C 233.033 165.625,239.414 165.193,243.662 167.346 M170.008 174.278 C 165.676 176.525,165.653 182.982,169.968 185.184 C 175.281 187.894,180.833 182.189,178.099 176.828 C 176.643 173.972,172.882 172.787,170.008 174.278 M234.482 174.851 C 228.892 177.618,230.958 186.399,237.200 186.399 C 243.461 186.399,245.598 177.656,240.032 174.816 C 237.996 173.778,236.633 173.786,234.482 174.851 " stroke="none" fill="#fabb06" fill-rule="evenodd"></path><path id="path1" d="M194.601 41.472 C 193.942 41.582,193.312 41.796,193.201 41.947 C 193.091 42.098,191.965 42.541,190.700 42.931 C 189.435 43.322,188.400 43.792,188.400 43.977 C 188.400 44.162,187.966 44.422,187.435 44.555 C 186.314 44.837,184.982 45.886,182.553 48.400 C 179.857 51.190,179.430 51.712,178.794 53.000 C 178.468 53.660,178.102 54.290,177.980 54.400 C 177.468 54.864,175.277 59.124,174.799 60.589 C 174.513 61.463,174.059 62.398,173.790 62.667 C 173.521 62.936,173.059 63.976,172.763 64.978 C 172.467 65.980,172.094 66.800,171.933 66.800 C 171.772 66.800,171.329 67.790,170.947 69.000 C 170.566 70.210,170.136 71.200,169.992 71.200 C 169.848 71.200,169.393 72.190,168.982 73.400 C 168.571 74.610,168.121 75.600,167.982 75.600 C 167.843 75.600,167.386 76.635,166.965 77.900 C 166.544 79.165,165.975 80.438,165.700 80.729 C 165.425 81.019,165.200 81.420,165.200 81.620 C 165.200 81.819,164.560 83.381,163.778 85.091 C 162.996 86.801,162.196 88.560,162.000 89.000 C 161.804 89.440,161.004 91.199,160.222 92.909 C 159.440 94.619,158.800 96.111,158.800 96.225 C 158.800 96.340,158.245 97.641,157.566 99.117 C 155.316 104.011,154.876 104.983,154.000 107.000 C 153.522 108.100,152.802 109.720,152.399 110.600 C 150.554 114.634,149.286 117.513,148.788 118.800 C 148.489 119.570,148.136 120.290,148.002 120.400 C 147.868 120.510,147.425 121.500,147.016 122.600 C 146.608 123.700,146.148 124.690,145.996 124.800 C 145.843 124.910,145.407 125.945,145.027 127.100 C 144.647 128.255,144.203 129.200,144.041 129.200 C 143.879 129.200,143.434 130.190,143.053 131.400 L 142.359 133.600 139.780 133.600 C 138.361 133.600,137.200 133.744,137.200 133.921 C 137.200 134.097,133.015 134.575,127.900 134.984 C 122.785 135.392,118.510 135.844,118.400 135.987 C 118.290 136.131,114.060 136.566,109.000 136.954 C 103.940 137.342,99.440 137.815,99.000 138.004 C 98.560 138.194,94.330 138.642,89.600 139.000 C 84.870 139.358,80.640 139.803,80.200 139.989 C 79.760 140.174,75.530 140.638,70.800 141.018 C 66.070 141.398,62.020 141.842,61.800 142.003 C 61.580 142.164,60.230 142.421,58.800 142.573 C 55.396 142.937,52.975 143.516,50.974 144.445 C 50.079 144.860,49.147 145.200,48.902 145.200 C 48.657 145.200,48.210 145.447,47.909 145.748 C 47.608 146.050,46.785 146.594,46.080 146.958 C 45.376 147.323,44.800 147.790,44.800 147.997 C 44.800 148.205,44.366 148.605,43.835 148.887 C 42.703 149.488,38.958 154.064,38.564 155.329 C 38.414 155.808,38.141 156.298,37.957 156.417 C 37.772 156.536,37.302 157.886,36.911 159.417 C 36.520 160.948,36.052 162.309,35.871 162.441 C 35.389 162.795,35.400 172.427,35.883 172.739 C 36.104 172.883,36.415 173.720,36.574 174.600 C 36.891 176.355,38.960 180.765,39.764 181.400 C 40.042 181.620,40.344 182.000,40.435 182.244 C 40.703 182.967,42.877 185.609,44.648 187.366 C 46.905 189.603,52.792 194.934,53.398 195.290 C 53.670 195.449,54.778 196.439,55.860 197.490 C 56.941 198.540,59.153 200.570,60.775 202.000 C 62.396 203.430,64.303 205.140,65.011 205.800 C 68.521 209.069,72.958 213.032,73.398 213.290 C 73.670 213.449,74.778 214.439,75.860 215.490 C 76.941 216.540,79.153 218.570,80.775 220.000 C 82.396 221.430,84.297 223.140,84.999 223.800 C 87.868 226.500,92.936 231.019,93.398 231.290 C 93.670 231.449,94.873 232.529,96.072 233.690 C 97.270 234.850,99.470 236.880,100.960 238.200 C 106.817 243.387,107.445 244.382,106.007 246.200 C 105.833 246.420,105.380 248.490,105.000 250.800 C 104.620 253.110,104.178 255.180,104.018 255.400 C 103.858 255.620,103.403 257.780,103.006 260.200 C 102.609 262.620,102.149 264.780,101.984 265.000 C 101.819 265.220,101.365 267.380,100.975 269.800 C 100.585 272.220,100.149 274.290,100.005 274.400 C 99.862 274.510,99.416 276.580,99.014 279.000 C 98.613 281.420,98.156 283.580,98.000 283.800 C 97.844 284.020,97.387 286.180,96.986 288.600 C 96.584 291.020,96.134 293.090,95.986 293.200 C 95.837 293.310,95.387 295.515,94.984 298.100 C 94.582 300.685,94.130 302.800,93.980 302.800 C 93.831 302.800,93.388 304.825,92.998 307.300 C 92.607 309.775,92.151 311.980,91.986 312.200 C 91.820 312.420,91.369 314.580,90.983 317.000 C 90.597 319.420,90.142 321.581,89.972 321.803 C 88.816 323.311,88.833 338.873,89.991 339.597 C 90.171 339.708,90.516 340.520,90.760 341.400 C 91.512 344.122,96.957 351.184,98.313 351.195 C 98.594 351.198,98.924 351.458,99.045 351.774 C 99.166 352.090,100.060 352.675,101.031 353.074 C 102.002 353.473,102.798 353.928,102.799 354.085 C 102.800 354.444,106.646 355.600,107.839 355.600 C 108.331 355.600,108.806 355.818,108.895 356.085 C 109.101 356.703,117.207 356.721,118.504 356.106 C 118.997 355.873,120.615 355.373,122.100 354.996 C 123.585 354.619,124.800 354.158,124.800 353.971 C 124.800 353.784,125.497 353.443,126.348 353.214 C 127.199 352.985,128.324 352.471,128.848 352.072 C 129.372 351.673,130.430 351.095,131.200 350.788 C 131.970 350.481,132.780 350.082,133.000 349.901 C 133.748 349.288,138.095 346.800,138.420 346.800 C 138.598 346.800,138.981 346.568,139.271 346.285 C 139.562 346.001,140.520 345.435,141.400 345.026 C 142.280 344.617,143.090 344.153,143.200 343.995 C 143.310 343.837,144.189 343.278,145.154 342.754 C 148.135 341.133,150.134 339.998,151.800 338.980 C 152.680 338.442,154.158 337.637,155.083 337.190 C 156.009 336.743,156.880 336.195,157.017 335.972 C 157.155 335.749,157.973 335.284,158.834 334.940 C 159.695 334.595,160.400 334.167,160.400 333.988 C 160.400 333.809,161.029 333.455,161.797 333.201 C 162.565 332.947,163.330 332.523,163.497 332.259 C 163.664 331.994,164.565 331.440,165.500 331.028 C 166.435 330.616,167.201 330.171,167.201 330.039 C 167.202 329.908,168.012 329.467,169.001 329.060 C 169.991 328.654,170.800 328.186,170.800 328.021 C 170.800 327.856,171.610 327.387,172.600 326.978 C 173.590 326.570,174.400 326.120,174.400 325.979 C 174.400 325.837,175.120 325.397,176.000 325.000 C 176.880 324.603,177.600 324.163,177.600 324.021 C 177.600 323.880,178.410 323.430,179.400 323.022 C 180.390 322.613,181.202 322.172,181.205 322.040 C 181.207 321.908,181.972 321.440,182.905 321.001 C 183.837 320.562,184.780 320.061,185.000 319.888 C 185.853 319.217,190.056 316.836,190.808 316.598 C 191.244 316.459,191.600 316.193,191.600 316.006 C 191.600 315.819,192.410 315.357,193.400 314.979 C 194.390 314.601,195.200 314.158,195.200 313.994 C 195.200 313.831,195.740 313.473,196.400 313.200 C 197.060 312.927,197.603 312.410,197.606 312.051 C 197.611 311.556,197.691 311.525,197.941 311.919 C 198.204 312.333,198.374 312.313,198.784 311.819 C 199.417 311.057,200.551 311.018,201.149 311.738 C 201.394 312.034,202.316 312.602,203.198 312.999 C 204.079 313.396,204.800 313.850,204.800 314.006 C 204.800 314.163,205.610 314.601,206.600 314.979 C 207.590 315.357,208.400 315.819,208.400 316.006 C 208.400 316.193,208.756 316.459,209.192 316.598 C 209.942 316.835,214.141 319.213,215.000 319.887 C 215.220 320.059,216.120 320.560,217.000 321.000 C 217.880 321.440,218.690 321.908,218.800 322.041 C 218.910 322.173,219.720 322.617,220.600 323.026 C 221.480 323.435,222.410 323.973,222.666 324.222 C 222.922 324.471,223.687 324.905,224.366 325.186 C 225.045 325.467,225.600 325.818,225.600 325.967 C 225.600 326.115,226.410 326.570,227.400 326.978 C 228.390 327.387,229.200 327.846,229.200 328.000 C 229.200 328.153,229.965 328.616,230.900 329.028 C 231.835 329.440,232.726 329.976,232.880 330.218 C 233.035 330.461,233.890 330.900,234.780 331.194 C 235.671 331.488,236.400 331.878,236.400 332.061 C 236.400 332.385,237.633 333.105,241.083 334.797 C 242.009 335.251,242.872 335.793,243.000 336.000 C 243.128 336.207,243.991 336.743,244.917 337.190 C 245.842 337.637,247.266 338.407,248.080 338.901 C 248.895 339.396,251.145 340.685,253.080 341.766 C 255.016 342.847,256.690 343.855,256.800 344.006 C 256.910 344.158,257.720 344.617,258.600 345.026 C 259.480 345.435,260.438 346.001,260.729 346.285 C 261.019 346.568,261.402 346.800,261.580 346.800 C 261.905 346.800,266.252 349.288,267.000 349.901 C 267.220 350.082,268.030 350.481,268.800 350.788 C 269.570 351.095,270.628 351.673,271.152 352.072 C 271.676 352.471,272.801 352.985,273.652 353.214 C 274.503 353.443,275.200 353.784,275.200 353.971 C 275.200 354.158,276.415 354.619,277.900 354.996 C 279.385 355.373,281.003 355.873,281.496 356.106 C 282.793 356.721,290.899 356.703,291.105 356.085 C 291.194 355.818,291.669 355.600,292.161 355.600 C 293.354 355.600,297.200 354.444,297.201 354.085 C 297.202 353.928,298.012 353.467,299.001 353.060 C 299.991 352.654,300.800 352.153,300.800 351.948 C 300.800 351.743,301.115 351.463,301.500 351.327 C 303.415 350.649,308.511 344.086,309.272 341.317 C 309.501 340.483,309.834 339.708,310.012 339.597 C 311.165 338.870,311.183 323.325,310.032 321.803 C 309.865 321.581,309.400 319.420,308.999 317.000 C 308.598 314.580,308.156 312.510,308.017 312.400 C 307.878 312.290,307.426 310.085,307.012 307.500 C 306.599 304.915,306.146 302.800,306.004 302.800 C 305.863 302.800,305.418 300.685,305.016 298.100 C 304.613 295.515,304.163 293.310,304.014 293.200 C 303.866 293.090,303.416 291.020,303.014 288.600 C 302.613 286.180,302.156 284.020,302.000 283.800 C 301.844 283.580,301.387 281.420,300.986 279.000 C 300.584 276.580,300.138 274.510,299.995 274.400 C 299.851 274.290,299.415 272.220,299.025 269.800 C 298.635 267.380,298.181 265.220,298.016 265.000 C 297.851 264.780,297.391 262.620,296.994 260.200 C 296.597 257.780,296.142 255.620,295.982 255.400 C 295.822 255.180,295.380 253.110,295.000 250.800 C 294.620 248.490,294.167 246.420,293.993 246.200 C 292.542 244.366,293.232 243.285,299.225 238.000 C 300.847 236.570,303.059 234.540,304.140 233.490 C 305.222 232.439,306.330 231.449,306.602 231.290 C 307.042 231.032,311.479 227.069,314.989 223.800 C 315.697 223.140,317.604 221.430,319.225 220.000 C 320.847 218.570,323.059 216.540,324.140 215.490 C 325.222 214.439,326.330 213.449,326.602 213.290 C 327.031 213.038,330.820 209.659,335.000 205.800 C 335.715 205.140,337.610 203.430,339.210 202.000 C 340.811 200.570,343.017 198.540,344.114 197.490 C 345.210 196.439,346.330 195.449,346.602 195.290 C 347.208 194.934,353.095 189.603,355.352 187.366 C 357.123 185.609,359.297 182.967,359.565 182.244 C 359.656 182.000,359.958 181.620,360.236 181.400 C 361.040 180.765,363.109 176.355,363.426 174.600 C 363.585 173.720,363.884 172.890,364.090 172.756 C 364.539 172.465,364.559 162.762,364.112 162.431 C 363.940 162.304,363.480 160.948,363.089 159.417 C 362.698 157.886,362.228 156.536,362.043 156.417 C 361.859 156.298,361.580 155.789,361.423 155.287 C 361.266 154.785,360.747 153.934,360.269 153.397 C 359.791 152.859,358.950 151.778,358.400 150.994 C 357.850 150.211,356.905 149.302,356.300 148.974 C 355.695 148.647,355.200 148.201,355.200 147.983 C 355.200 147.765,354.570 147.287,353.800 146.919 C 353.030 146.552,352.400 146.120,352.400 145.958 C 352.400 145.796,351.455 145.356,350.300 144.979 C 349.145 144.602,348.020 144.164,347.800 144.005 C 347.178 143.555,344.062 142.879,341.200 142.573 C 339.770 142.421,338.420 142.164,338.200 142.003 C 337.980 141.842,333.930 141.398,329.200 141.018 C 324.470 140.638,320.240 140.173,319.800 139.985 C 319.360 139.798,314.950 139.333,310.000 138.953 C 305.050 138.573,300.910 138.143,300.800 137.998 C 300.690 137.852,296.370 137.400,291.200 136.993 C 286.030 136.586,281.710 136.134,281.600 135.990 C 281.490 135.845,277.215 135.392,272.100 134.984 C 266.985 134.575,262.800 134.097,262.800 133.921 C 262.800 133.744,261.644 133.600,260.231 133.600 L 257.662 133.600 257.183 132.100 C 256.919 131.275,256.382 130.060,255.990 129.400 C 255.598 128.740,255.051 127.435,254.775 126.500 C 254.499 125.565,254.151 124.800,254.002 124.800 C 253.852 124.800,253.393 123.810,252.982 122.600 C 252.571 121.390,252.128 120.400,251.998 120.400 C 251.867 120.400,251.522 119.725,251.229 118.900 C 250.754 117.558,250.123 116.115,247.601 110.600 C 247.198 109.720,246.478 108.100,246.000 107.000 C 245.124 104.983,244.684 104.011,242.434 99.117 C 241.755 97.641,241.200 96.340,241.200 96.225 C 241.200 96.111,240.560 94.619,239.778 92.909 C 238.996 91.199,238.196 89.440,238.000 89.000 C 237.804 88.560,237.004 86.801,236.222 85.091 C 235.440 83.381,234.800 81.819,234.800 81.620 C 234.800 81.420,234.575 81.019,234.300 80.729 C 234.025 80.438,233.456 79.165,233.035 77.900 C 232.614 76.635,232.136 75.600,231.972 75.600 C 231.808 75.600,231.363 74.610,230.982 73.400 C 230.602 72.190,230.168 71.200,230.018 71.200 C 229.869 71.200,229.434 70.210,229.053 69.000 C 228.671 67.790,228.221 66.800,228.053 66.800 C 227.884 66.800,227.434 65.810,227.053 64.600 C 226.671 63.390,226.217 62.400,226.044 62.400 C 225.870 62.400,225.485 61.635,225.187 60.700 C 224.692 59.145,222.546 54.876,222.020 54.400 C 221.898 54.290,221.532 53.660,221.206 53.000 C 220.570 51.712,220.143 51.190,217.447 48.400 C 215.018 45.886,213.686 44.837,212.565 44.555 C 212.034 44.422,211.600 44.162,211.600 43.977 C 211.600 43.792,210.565 43.322,209.300 42.931 C 208.035 42.541,206.881 42.051,206.734 41.843 C 206.450 41.438,196.603 41.137,194.601 41.472 M200.677 87.900 C 200.926 88.592,207.522 103.479,208.608 105.800 C 208.917 106.460,210.721 110.510,212.618 114.800 C 214.515 119.090,216.394 123.320,216.794 124.200 C 217.194 125.080,217.798 126.430,218.137 127.200 C 218.476 127.970,220.394 132.290,222.400 136.800 C 224.406 141.310,226.325 145.630,226.664 146.400 C 233.140 161.081,238.213 165.030,252.600 166.593 C 255.680 166.928,259.460 167.377,261.000 167.592 C 262.540 167.806,266.950 168.264,270.800 168.609 C 274.650 168.954,278.880 169.404,280.200 169.608 C 281.520 169.812,285.930 170.265,290.000 170.615 C 294.070 170.964,297.675 171.328,298.011 171.424 C 298.347 171.519,303.190 172.040,308.774 172.582 C 314.358 173.123,319.086 173.726,319.281 173.921 C 319.590 174.230,290.628 200.760,288.903 201.750 C 288.441 202.015,288.493 201.724,289.120 200.550 C 289.574 199.697,290.153 198.322,290.406 197.494 C 290.659 196.665,291.315 195.675,291.863 195.294 C 292.412 194.912,293.448 194.060,294.167 193.400 C 294.885 192.740,296.146 191.686,296.969 191.057 C 298.608 189.805,300.164 186.747,299.779 185.534 C 299.025 183.158,296.009 183.142,294.900 185.508 C 294.401 186.571,293.683 187.247,292.400 187.860 C 291.410 188.334,290.316 189.185,289.970 189.753 C 289.623 190.321,288.723 191.197,287.970 191.701 C 286.896 192.418,286.418 193.175,285.755 195.208 C 284.484 199.107,281.094 203.600,279.423 203.600 C 279.140 203.600,278.450 203.960,277.891 204.400 C 277.331 204.840,276.660 205.200,276.399 205.200 C 276.137 205.200,275.446 205.537,274.862 205.948 C 274.278 206.360,272.720 207.000,271.400 207.370 C 270.080 207.741,268.433 208.304,267.740 208.622 C 267.046 208.940,265.842 209.200,265.063 209.200 C 264.284 209.200,263.549 209.359,263.429 209.554 C 262.971 210.294,259.543 211.600,258.058 211.600 C 257.182 211.600,256.093 211.914,255.554 212.322 C 255.029 212.719,253.790 213.283,252.800 213.574 C 251.810 213.865,250.433 214.350,249.740 214.652 C 249.046 214.953,248.258 215.200,247.987 215.200 C 247.716 215.200,246.933 215.544,246.247 215.965 C 245.561 216.385,243.920 217.037,242.600 217.413 C 241.280 217.789,240.014 218.245,239.786 218.426 C 238.827 219.189,230.890 220.303,222.600 220.838 C 214.208 221.380,182.641 221.098,181.890 220.475 C 181.590 220.226,179.648 219.763,177.573 219.445 C 175.498 219.127,173.131 218.582,172.313 218.234 C 171.495 217.885,170.364 217.600,169.800 217.600 C 168.206 217.600,163.990 216.050,162.084 214.763 C 161.136 214.123,160.144 213.599,159.880 213.598 C 159.616 213.598,158.320 213.058,157.000 212.400 C 155.680 211.742,154.390 211.202,154.133 211.202 C 153.876 211.201,151.649 209.837,149.184 208.172 C 146.720 206.506,144.284 204.984,143.773 204.790 C 143.261 204.595,142.564 204.012,142.224 203.493 C 141.885 202.975,139.757 200.986,137.497 199.072 C 135.236 197.159,132.600 194.608,131.638 193.403 C 129.667 190.932,125.839 187.200,125.277 187.200 C 125.073 187.200,124.432 186.483,123.852 185.607 C 122.285 183.239,119.687 183.037,118.991 185.228 C 118.463 186.891,119.326 188.200,123.996 192.829 C 126.609 195.418,129.033 198.091,129.384 198.768 C 129.734 199.446,130.179 200.000,130.373 200.000 C 130.907 200.000,136.793 205.090,138.514 207.040 C 139.347 207.983,140.427 208.881,140.913 209.036 C 141.400 209.190,143.927 210.743,146.530 212.487 C 149.133 214.231,151.926 215.892,152.738 216.178 C 153.550 216.465,154.929 217.082,155.801 217.550 C 156.674 218.017,157.620 218.400,157.903 218.400 C 158.186 218.400,159.131 218.873,160.004 219.450 C 161.948 220.736,167.717 222.799,169.381 222.802 C 170.051 222.804,171.123 223.078,171.763 223.412 C 172.403 223.745,174.590 224.268,176.623 224.573 C 178.656 224.879,180.743 225.370,181.260 225.664 C 182.519 226.382,228.753 226.461,229.639 225.747 C 229.947 225.498,231.280 225.190,232.600 225.062 C 236.283 224.705,239.590 224.103,240.121 223.694 C 240.384 223.490,241.500 223.091,242.600 222.806 C 244.711 222.259,245.604 221.916,249.275 220.239 C 250.527 219.668,251.979 219.200,252.502 219.200 C 253.025 219.200,254.509 218.660,255.800 218.000 C 257.091 217.340,258.718 216.800,259.417 216.800 C 260.116 216.800,261.748 216.262,263.044 215.605 C 264.340 214.948,265.643 214.408,265.941 214.405 C 266.990 214.395,276.211 211.095,278.292 209.985 C 281.597 208.221,280.870 209.119,273.900 215.407 C 261.510 226.585,259.180 230.475,259.214 239.920 C 259.228 243.958,259.551 246.049,261.601 255.400 C 262.276 258.480,263.201 262.800,263.657 265.000 C 265.075 271.846,266.290 277.605,267.412 282.800 C 268.653 288.547,269.961 294.775,271.190 300.800 C 271.661 303.110,272.382 306.440,272.792 308.200 C 274.377 315.011,274.336 315.166,271.400 313.462 C 270.520 312.951,267.370 311.130,264.400 309.416 C 261.430 307.702,258.460 305.984,257.800 305.600 C 257.140 305.215,254.800 303.868,252.600 302.605 C 250.400 301.342,248.060 299.992,247.400 299.605 C 246.740 299.218,244.400 297.868,242.200 296.605 C 240.000 295.342,237.660 293.995,237.000 293.612 C 232.776 291.157,224.565 286.425,222.200 285.082 C 220.660 284.208,218.133 282.728,216.586 281.794 C 204.067 274.240,195.933 274.240,183.414 281.794 C 181.867 282.728,179.340 284.208,177.800 285.082 C 175.435 286.425,167.224 291.157,163.000 293.612 C 162.340 293.995,160.000 295.342,157.800 296.605 C 155.600 297.868,153.260 299.218,152.600 299.605 C 151.940 299.992,149.060 301.652,146.200 303.293 C 143.340 304.934,138.570 307.687,135.600 309.411 C 126.988 314.411,125.999 314.918,126.012 314.330 C 126.019 314.039,126.385 312.090,126.825 310.000 C 127.266 307.910,127.980 304.400,128.413 302.200 C 128.845 300.000,129.303 297.930,129.430 297.600 C 129.557 297.270,130.094 294.840,130.623 292.200 C 131.152 289.560,132.047 285.240,132.612 282.600 C 134.002 276.116,135.386 269.578,136.592 263.800 C 137.144 261.160,138.042 256.930,138.589 254.400 C 140.674 244.754,140.883 243.167,140.700 238.400 C 140.302 228.054,141.111 229.008,105.682 197.088 C 90.926 183.793,80.511 174.129,80.718 173.922 C 80.914 173.726,85.642 173.123,91.226 172.582 C 96.810 172.040,101.653 171.519,101.989 171.424 C 102.325 171.328,105.930 170.964,110.000 170.615 C 114.070 170.265,118.480 169.812,119.800 169.608 C 121.120 169.404,125.350 168.954,129.200 168.609 C 133.050 168.264,137.460 167.806,139.000 167.592 C 140.540 167.377,144.320 166.928,147.400 166.593 C 160.370 165.184,166.530 161.116,171.252 150.844 C 171.921 149.390,172.797 147.480,173.200 146.600 C 173.604 145.720,175.575 141.310,177.582 136.800 C 179.589 132.290,181.397 128.240,181.600 127.800 C 181.949 127.040,188.560 112.160,189.863 109.200 C 190.202 108.430,190.806 107.080,191.206 106.200 C 192.418 103.531,198.820 89.063,199.214 88.100 C 199.655 87.024,200.329 86.932,200.677 87.900 M167.682 165.958 C 158.231 169.222,155.108 181.556,161.924 188.698 C 170.758 197.954,186.173 192.048,186.195 179.400 C 186.211 169.610,176.830 162.798,167.682 165.958 M233.103 166.885 C 227.834 168.511,223.737 173.546,223.305 178.925 C 222.248 192.096,237.843 199.402,247.143 190.093 C 257.427 179.799,247.016 162.590,233.103 166.885 M175.826 174.059 C 181.827 177.237,179.547 186.003,172.720 185.999 C 168.618 185.996,166.262 183.496,166.491 179.390 C 166.769 174.426,171.460 171.747,175.826 174.059 M240.704 174.798 C 246.070 178.070,243.521 186.802,237.200 186.802 C 230.918 186.802,228.409 178.022,233.758 174.760 C 235.467 173.718,238.964 173.737,240.704 174.798 " stroke="none" fill="#040404" fill-rule="evenodd"></path><path id="path2" d="M161.775 169.300 L 160.600 170.600 161.900 169.425 C 163.112 168.330,163.384 168.000,163.075 168.000 C 163.006 168.000,162.421 168.585,161.775 169.300 M226.975 170.100 L 225.800 171.400 227.100 170.225 C 227.815 169.579,228.400 168.994,228.400 168.925 C 228.400 168.616,228.070 168.888,226.975 170.100 M317.775 175.300 L 316.600 176.600 317.900 175.425 C 318.615 174.779,319.200 174.194,319.200 174.125 C 319.200 173.816,318.870 174.088,317.775 175.300 M186.514 179.400 C 186.517 180.500,186.595 180.903,186.687 180.295 C 186.779 179.686,186.777 178.786,186.682 178.295 C 186.587 177.803,186.511 178.300,186.514 179.400 M166.514 179.800 C 166.517 180.900,166.595 181.303,166.687 180.695 C 166.779 180.086,166.777 179.186,166.682 178.695 C 166.587 178.203,166.511 178.700,166.514 179.800 M178.901 179.800 C 178.905 180.680,178.987 180.993,179.083 180.495 C 179.179 179.998,179.175 179.278,179.075 178.895 C 178.975 178.513,178.896 178.920,178.901 179.800 M243.314 180.200 C 243.317 181.300,243.395 181.703,243.487 181.095 C 243.579 180.486,243.577 179.586,243.482 179.095 C 243.387 178.603,243.311 179.100,243.314 180.200 M230.901 180.200 C 230.905 181.080,230.987 181.393,231.083 180.895 C 231.179 180.398,231.175 179.678,231.075 179.295 C 230.975 178.913,230.896 179.320,230.901 180.200 M236.505 194.687 C 237.114 194.779,238.014 194.777,238.505 194.682 C 238.997 194.587,238.500 194.511,237.400 194.514 C 236.300 194.517,235.897 194.595,236.505 194.687 M278.204 210.337 C 278.316 210.449,278.001 211.004,277.505 211.570 C 276.772 212.407,276.847 212.379,277.901 211.425 C 279.411 210.060,279.371 210.133,278.600 210.133 C 278.270 210.133,278.092 210.225,278.204 210.337 M257.105 211.483 C 257.602 211.579,258.322 211.575,258.705 211.475 C 259.087 211.375,258.680 211.296,257.800 211.301 C 256.920 211.305,256.607 211.387,257.105 211.483 M196.473 226.699 C 200.804 226.764,208.004 226.764,212.473 226.700 C 216.943 226.635,213.400 226.582,204.600 226.582 C 195.800 226.582,192.143 226.635,196.473 226.699 " stroke="none" fill="#7c7c7c" fill-rule="evenodd"></path><path id="path3" d="M199.195 88.010 C 198.942 88.482,198.823 88.957,198.931 89.064 C 199.039 89.172,199.246 88.887,199.390 88.430 C 199.673 87.539,200.206 87.344,200.537 88.010 C 200.649 88.236,200.697 88.202,200.645 87.935 C 200.478 87.082,199.669 87.124,199.195 88.010 M183.265 123.817 C 182.595 125.288,182.723 125.602,183.447 124.265 C 183.786 123.640,183.988 123.054,183.896 122.963 C 183.805 122.871,183.521 123.256,183.265 123.817 M165.578 159.500 L 164.200 161.000 165.700 159.622 C 166.525 158.863,167.200 158.188,167.200 158.122 C 167.200 157.816,166.862 158.104,165.578 159.500 M234.000 159.400 C 234.746 160.170,235.447 160.800,235.557 160.800 C 235.667 160.800,235.146 160.170,234.400 159.400 C 233.654 158.630,232.953 158.000,232.843 158.000 C 232.733 158.000,233.254 158.630,234.000 159.400 M140.705 167.483 C 141.202 167.579,141.922 167.575,142.305 167.475 C 142.687 167.375,142.280 167.296,141.400 167.301 C 140.520 167.305,140.207 167.387,140.705 167.483 M257.905 167.483 C 258.402 167.579,259.122 167.575,259.505 167.475 C 259.887 167.375,259.480 167.296,258.600 167.301 C 257.720 167.305,257.407 167.387,257.905 167.483 M162.181 169.300 L 160.600 171.000 162.300 169.419 C 163.881 167.948,164.184 167.600,163.881 167.600 C 163.816 167.600,163.051 168.365,162.181 169.300 M125.300 169.076 C 125.685 169.176,126.315 169.176,126.700 169.076 C 127.085 168.975,126.770 168.893,126.000 168.893 C 125.230 168.893,124.915 168.975,125.300 169.076 M226.981 170.500 L 225.400 172.200 227.100 170.619 C 228.681 169.148,228.984 168.800,228.681 168.800 C 228.616 168.800,227.851 169.565,226.981 170.500 M273.300 169.076 C 273.685 169.176,274.315 169.176,274.700 169.076 C 275.085 168.975,274.770 168.893,274.000 168.893 C 273.230 168.893,272.915 168.975,273.300 169.076 M121.905 169.483 C 122.402 169.579,123.122 169.575,123.505 169.475 C 123.887 169.375,123.480 169.296,122.600 169.301 C 121.720 169.305,121.407 169.387,121.905 169.483 M276.705 169.483 C 277.202 169.579,277.922 169.575,278.305 169.475 C 278.687 169.375,278.280 169.296,277.400 169.301 C 276.520 169.305,276.207 169.387,276.705 169.483 M106.100 171.076 C 106.485 171.176,107.115 171.176,107.500 171.076 C 107.885 170.975,107.570 170.893,106.800 170.893 C 106.030 170.893,105.715 170.975,106.100 171.076 M292.500 171.076 C 292.885 171.176,293.515 171.176,293.900 171.076 C 294.285 170.975,293.970 170.893,293.200 170.893 C 292.430 170.893,292.115 170.975,292.500 171.076 M102.705 171.483 C 103.202 171.579,103.922 171.575,104.305 171.475 C 104.687 171.375,104.280 171.296,103.400 171.301 C 102.520 171.305,102.207 171.387,102.705 171.483 M295.905 171.483 C 296.402 171.579,297.122 171.575,297.505 171.475 C 297.887 171.375,297.480 171.296,296.600 171.301 C 295.720 171.305,295.407 171.387,295.905 171.483 M83.505 173.483 C 84.002 173.579,84.722 173.575,85.105 173.475 C 85.487 173.375,85.080 173.296,84.200 173.301 C 83.320 173.305,83.007 173.387,83.505 173.483 M171.200 173.425 C 172.603 173.735,175.118 173.790,174.943 173.507 C 174.838 173.338,173.818 173.221,172.676 173.246 C 171.534 173.272,170.870 173.352,171.200 173.425 M315.105 173.483 C 315.602 173.579,316.322 173.575,316.705 173.475 C 317.087 173.375,316.680 173.296,315.800 173.301 C 314.920 173.305,314.607 173.387,315.105 173.483 M80.640 173.935 C 80.526 174.119,81.191 174.974,82.117 175.835 L 83.800 177.400 82.256 175.738 C 80.910 174.289,80.807 174.051,81.456 173.884 C 82.078 173.724,82.089 173.685,81.524 173.646 C 81.152 173.621,80.754 173.751,80.640 173.935 M318.544 173.884 C 319.193 174.051,319.090 174.289,317.744 175.738 L 316.200 177.400 317.883 175.835 C 319.563 174.274,319.757 173.559,318.476 173.646 C 317.911 173.685,317.922 173.724,318.544 173.884 M313.578 179.500 L 312.200 181.000 313.700 179.622 C 315.096 178.338,315.384 178.000,315.078 178.000 C 315.012 178.000,314.337 178.675,313.578 179.500 M85.200 178.525 C 85.200 178.594,85.785 179.179,86.500 179.825 L 87.800 181.000 86.625 179.700 C 85.530 178.488,85.200 178.216,85.200 178.525 M251.314 180.200 C 251.317 181.300,251.395 181.703,251.487 181.095 C 251.579 180.486,251.577 179.586,251.482 179.095 C 251.387 178.603,251.311 179.100,251.314 180.200 M118.667 185.067 C 118.192 185.541,118.384 187.027,119.022 187.824 C 119.614 188.562,119.622 188.554,119.184 187.655 C 118.931 187.136,118.806 186.281,118.906 185.755 C 119.103 184.728,119.078 184.656,118.667 185.067 M294.527 185.500 C 294.390 185.885,293.991 186.560,293.639 187.000 C 293.011 187.786,293.015 187.787,293.860 187.074 C 294.333 186.675,294.811 186.000,294.923 185.574 C 295.175 184.609,294.863 184.551,294.527 185.500 M93.200 185.725 C 93.200 185.794,93.785 186.379,94.500 187.025 L 95.800 188.200 94.625 186.900 C 93.530 185.688,93.200 185.416,93.200 185.725 M235.163 186.524 C 235.342 186.703,236.369 186.790,237.444 186.718 L 239.400 186.587 237.119 186.394 C 235.864 186.287,234.984 186.346,235.163 186.524 M98.000 190.200 C 98.746 190.970,99.447 191.600,99.557 191.600 C 99.667 191.600,99.146 190.970,98.400 190.200 C 97.654 189.430,96.953 188.800,96.843 188.800 C 96.733 188.800,97.254 189.430,98.000 190.200 M121.000 190.400 C 121.859 191.280,122.652 192.000,122.762 192.000 C 122.872 192.000,122.259 191.280,121.400 190.400 C 120.541 189.520,119.748 188.800,119.638 188.800 C 119.528 188.800,120.141 189.520,121.000 190.400 M301.578 190.300 L 300.200 191.800 301.700 190.422 C 303.096 189.138,303.384 188.800,303.078 188.800 C 303.012 188.800,302.337 189.475,301.578 190.300 M297.578 193.900 L 296.200 195.400 297.700 194.022 C 299.096 192.738,299.384 192.400,299.078 192.400 C 299.012 192.400,298.337 193.075,297.578 193.900 M101.200 192.925 C 101.200 192.994,101.785 193.579,102.500 194.225 L 103.800 195.400 102.625 194.100 C 101.530 192.888,101.200 192.616,101.200 192.925 M171.305 193.487 C 171.914 193.579,172.814 193.577,173.305 193.482 C 173.797 193.387,173.300 193.311,172.200 193.314 C 171.100 193.317,170.697 193.395,171.305 193.487 M126.800 196.125 C 126.800 196.194,127.385 196.779,128.100 197.425 L 129.400 198.600 128.225 197.300 C 127.130 196.088,126.800 195.816,126.800 196.125 M105.200 196.525 C 105.200 196.594,105.785 197.179,106.500 197.825 L 107.800 199.000 106.625 197.700 C 105.530 196.488,105.200 196.216,105.200 196.525 M293.375 197.700 L 292.200 199.000 293.500 197.825 C 294.215 197.179,294.800 196.594,294.800 196.525 C 294.800 196.216,294.470 196.488,293.375 197.700 M109.200 200.125 C 109.200 200.194,109.785 200.779,110.500 201.425 L 111.800 202.600 110.625 201.300 C 109.530 200.088,109.200 199.816,109.200 200.125 M290.004 200.596 C 289.732 200.923,289.369 201.104,289.197 200.998 C 289.025 200.892,288.779 201.078,288.651 201.412 C 288.467 201.891,288.570 201.937,289.142 201.631 C 289.881 201.235,291.060 200.000,290.698 200.000 C 290.588 200.000,290.276 200.268,290.004 200.596 M131.200 200.525 C 131.200 200.594,131.785 201.179,132.500 201.825 L 133.800 203.000 132.625 201.700 C 131.530 200.488,131.200 200.216,131.200 200.525 M113.200 203.725 C 113.200 203.794,113.785 204.379,114.500 205.025 L 115.800 206.200 114.625 204.900 C 113.530 203.688,113.200 203.416,113.200 203.725 M273.000 206.614 C 271.995 207.098,271.963 207.153,272.800 206.951 C 273.350 206.819,273.971 206.550,274.180 206.355 C 274.698 205.871,274.414 205.933,273.000 206.614 M117.200 207.325 C 117.200 207.394,117.785 207.979,118.500 208.625 L 119.800 209.800 118.625 208.500 C 117.530 207.288,117.200 207.016,117.200 207.325 M267.000 208.614 C 265.995 209.098,265.963 209.153,266.800 208.951 C 267.350 208.819,267.971 208.550,268.180 208.355 C 268.698 207.871,268.414 207.933,267.000 208.614 M139.774 208.758 C 139.897 208.958,140.580 209.324,141.290 209.571 C 142.788 210.094,142.335 209.579,140.675 208.873 C 140.056 208.609,139.650 208.558,139.774 208.758 M260.900 210.596 C 260.185 210.907,259.600 211.256,259.600 211.372 C 259.600 211.619,261.626 210.796,262.180 210.324 C 262.705 209.876,262.414 209.938,260.900 210.596 M121.200 210.925 C 121.200 210.994,121.785 211.579,122.500 212.225 L 123.800 213.400 122.625 212.100 C 121.530 210.888,121.200 210.616,121.200 210.925 M277.375 212.100 L 276.200 213.400 277.500 212.225 C 278.215 211.579,278.800 210.994,278.800 210.925 C 278.800 210.616,278.470 210.888,277.375 212.100 M249.000 214.614 C 247.995 215.098,247.963 215.153,248.800 214.951 C 249.350 214.819,249.971 214.550,250.180 214.355 C 250.698 213.871,250.414 213.933,249.000 214.614 M125.200 214.525 C 125.200 214.594,125.785 215.179,126.500 215.825 L 127.800 217.000 126.625 215.700 C 125.530 214.488,125.200 214.216,125.200 214.525 M273.375 215.700 L 272.200 217.000 273.500 215.825 C 274.215 215.179,274.800 214.594,274.800 214.525 C 274.800 214.216,274.470 214.488,273.375 215.700 M131.000 220.000 C 132.083 221.100,133.060 222.000,133.170 222.000 C 133.280 222.000,132.483 221.100,131.400 220.000 C 130.317 218.900,129.340 218.000,129.230 218.000 C 129.120 218.000,129.917 218.900,131.000 220.000 M269.178 219.500 L 267.800 221.000 269.300 219.622 C 270.696 218.338,270.984 218.000,270.678 218.000 C 270.612 218.000,269.937 218.675,269.178 219.500 M251.700 219.476 C 252.085 219.576,252.715 219.576,253.100 219.476 C 253.485 219.375,253.170 219.293,252.400 219.293 C 251.630 219.293,251.315 219.375,251.700 219.476 M181.918 220.465 C 182.242 220.770,190.038 221.104,189.736 220.800 C 189.626 220.690,187.759 220.510,185.587 220.400 C 183.414 220.290,181.764 220.319,181.918 220.465 M222.515 220.696 C 223.788 220.776,225.768 220.775,226.915 220.694 C 228.062 220.614,227.020 220.549,224.600 220.550 C 222.180 220.551,221.242 220.616,222.515 220.696 M133.600 222.525 C 133.600 222.594,134.185 223.179,134.900 223.825 L 136.200 225.000 135.025 223.700 C 133.930 222.488,133.600 222.216,133.600 222.525 M170.000 222.934 C 170.000 223.037,170.581 223.324,171.291 223.572 C 172.001 223.819,172.406 223.857,172.191 223.656 C 171.735 223.229,170.000 222.658,170.000 222.934 M264.575 224.100 L 263.400 225.400 264.700 224.225 C 265.415 223.579,266.000 222.994,266.000 222.925 C 266.000 222.616,265.670 222.888,264.575 224.100 M229.857 225.507 C 229.753 225.676,230.417 225.757,231.334 225.686 C 234.025 225.479,234.353 225.296,232.124 225.246 C 230.982 225.221,229.962 225.338,229.857 225.507 M140.940 239.600 C 140.940 241.470,141.009 242.235,141.093 241.300 C 141.177 240.365,141.177 238.835,141.093 237.900 C 141.009 236.965,140.940 237.730,140.940 239.600 M258.940 239.600 C 258.940 241.470,259.009 242.235,259.093 241.300 C 259.177 240.365,259.177 238.835,259.093 237.900 C 259.009 236.965,258.940 237.730,258.940 239.600 M193.400 276.800 C 192.896 277.017,192.822 277.144,193.200 277.144 C 193.530 277.144,194.160 276.989,194.600 276.800 C 195.104 276.583,195.178 276.456,194.800 276.456 C 194.470 276.456,193.840 276.611,193.400 276.800 M205.400 276.800 C 205.840 276.989,206.470 277.144,206.800 277.144 C 207.178 277.144,207.104 277.017,206.600 276.800 C 206.160 276.611,205.530 276.456,205.200 276.456 C 204.822 276.456,204.896 276.583,205.400 276.800 " stroke="none" fill="#574104" fill-rule="evenodd"></path><path id="path4" d="M171.300 165.087 C 171.905 165.178,172.895 165.178,173.500 165.087 C 174.105 164.995,173.610 164.920,172.400 164.920 C 171.190 164.920,170.695 164.995,171.300 165.087 M181.200 168.125 C 181.200 168.194,181.785 168.779,182.500 169.425 L 183.800 170.600 182.625 169.300 C 181.530 168.088,181.200 167.816,181.200 168.125 M246.000 168.925 C 246.000 168.994,246.585 169.579,247.300 170.225 L 248.600 171.400 247.425 170.100 C 246.330 168.888,246.000 168.616,246.000 168.925 M222.920 180.400 C 222.920 181.610,222.995 182.105,223.087 181.500 C 223.178 180.895,223.178 179.905,223.087 179.300 C 222.995 178.695,222.920 179.190,222.920 180.400 M160.800 188.125 C 160.800 188.194,161.385 188.779,162.100 189.425 L 163.400 190.600 162.225 189.300 C 161.130 188.088,160.800 187.816,160.800 188.125 M226.000 189.325 C 226.000 189.394,226.585 189.979,227.300 190.625 L 228.600 191.800 227.425 190.500 C 226.330 189.288,226.000 189.016,226.000 189.325 M264.100 209.076 C 264.485 209.176,265.115 209.176,265.500 209.076 C 265.885 208.975,265.570 208.893,264.800 208.893 C 264.030 208.893,263.715 208.975,264.100 209.076 M258.700 217.082 C 259.195 217.178,260.005 217.178,260.500 217.082 C 260.995 216.987,260.590 216.909,259.600 216.909 C 258.610 216.909,258.205 216.987,258.700 217.082 M175.300 219.076 C 175.685 219.176,176.315 219.176,176.700 219.076 C 177.085 218.975,176.770 218.893,176.000 218.893 C 175.230 218.893,174.915 218.975,175.300 219.076 M235.700 219.076 C 236.085 219.176,236.715 219.176,237.100 219.076 C 237.485 218.975,237.170 218.893,236.400 218.893 C 235.630 218.893,235.315 218.975,235.700 219.076 M266.400 221.800 C 265.428 222.790,264.723 223.600,264.833 223.600 C 264.943 223.600,265.828 222.790,266.800 221.800 C 267.772 220.810,268.477 220.000,268.367 220.000 C 268.257 220.000,267.372 220.810,266.400 221.800 M132.000 220.525 C 132.000 220.594,132.585 221.179,133.300 221.825 L 134.600 223.000 133.425 221.700 C 132.330 220.488,132.000 220.216,132.000 220.525 M197.300 221.099 C 201.425 221.164,208.175 221.164,212.300 221.099 C 216.425 221.034,213.050 220.981,204.800 220.981 C 196.550 220.981,193.175 221.034,197.300 221.099 M168.100 223.076 C 168.485 223.176,169.115 223.176,169.500 223.076 C 169.885 222.975,169.570 222.893,168.800 222.893 C 168.030 222.893,167.715 222.975,168.100 223.076 M177.300 225.076 C 177.685 225.176,178.315 225.176,178.700 225.076 C 179.085 224.975,178.770 224.893,178.000 224.893 C 177.230 224.893,176.915 224.975,177.300 225.076 " stroke="none" fill="#845c04" fill-rule="evenodd"></path></g></svg>